<mxfile host="Electron" modified="2024-01-16T02:57:21.310Z" agent="Mozilla/5.0 (Windows NT 10.0; Win64; x64) AppleWebKit/537.36 (KHTML, like Gecko) draw.io/22.1.18 Chrome/120.0.6099.199 Electron/28.1.2 Safari/537.36" etag="8x5eAD06faZpP6iWEoVk" version="22.1.18" type="device">
  <diagram name="Page-1" id="zB9CN9gXOCIOCuzpGsoG">
    <mxGraphModel dx="1434" dy="836" grid="1" gridSize="10" guides="1" tooltips="1" connect="1" arrows="1" fold="1" page="1" pageScale="1" pageWidth="1200" pageHeight="1600" math="0" shadow="0">
      <root>
        <mxCell id="0" />
        <mxCell id="1" parent="0" />
        <mxCell id="lfoB6U79hIwNB-Yo33na-3" value="&lt;h1&gt;Clases en linea&lt;/h1&gt;&lt;p&gt;Sistema de gestion de clases para profesores, y personas que quieran dictar cursos.&lt;br&gt;&lt;/p&gt;" style="text;html=1;strokeColor=none;fillColor=none;spacing=5;spacingTop=-20;whiteSpace=wrap;overflow=hidden;rounded=0;" vertex="1" parent="1">
          <mxGeometry x="270" y="930" width="190" height="120" as="geometry" />
        </mxCell>
        <mxCell id="lfoB6U79hIwNB-Yo33na-6" value="Microservicio de usuario" style="text;html=1;align=center;verticalAlign=middle;resizable=0;points=[];autosize=1;strokeColor=none;fillColor=none;" vertex="1" parent="1">
          <mxGeometry x="160" y="1060" width="150" height="30" as="geometry" />
        </mxCell>
        <mxCell id="lfoB6U79hIwNB-Yo33na-7" value="Microservicio de clases" style="text;html=1;align=center;verticalAlign=middle;resizable=0;points=[];autosize=1;strokeColor=none;fillColor=none;" vertex="1" parent="1">
          <mxGeometry x="410" y="1060" width="150" height="30" as="geometry" />
        </mxCell>
        <mxCell id="lfoB6U79hIwNB-Yo33na-8" style="edgeStyle=orthogonalEdgeStyle;rounded=0;orthogonalLoop=1;jettySize=auto;html=1;entryX=0.067;entryY=0.5;entryDx=0;entryDy=0;entryPerimeter=0;shadow=0;startArrow=block;startFill=1;" edge="1" parent="1" source="lfoB6U79hIwNB-Yo33na-6" target="lfoB6U79hIwNB-Yo33na-7">
          <mxGeometry relative="1" as="geometry" />
        </mxCell>
        <mxCell id="lfoB6U79hIwNB-Yo33na-9" value="Intercomunicacion entre&lt;br&gt;ambos microservicios&lt;br&gt;Pues los usuarios&lt;br&gt;son quienes tienen&lt;br&gt;las clases, o quienes&lt;br&gt;las reciben" style="text;html=1;align=center;verticalAlign=middle;resizable=0;points=[];autosize=1;strokeColor=none;fillColor=none;" vertex="1" parent="1">
          <mxGeometry x="290" y="1093" width="150" height="100" as="geometry" />
        </mxCell>
        <mxCell id="lfoB6U79hIwNB-Yo33na-10" value="Como hacer el routing los dos microservicios" style="text;html=1;strokeColor=none;fillColor=none;align=center;verticalAlign=middle;whiteSpace=wrap;rounded=0;" vertex="1" parent="1">
          <mxGeometry x="680" y="950" width="200" height="30" as="geometry" />
        </mxCell>
        <mxCell id="lfoB6U79hIwNB-Yo33na-14" style="edgeStyle=orthogonalEdgeStyle;rounded=0;orthogonalLoop=1;jettySize=auto;html=1;" edge="1" parent="1" source="lfoB6U79hIwNB-Yo33na-11" target="lfoB6U79hIwNB-Yo33na-12">
          <mxGeometry relative="1" as="geometry" />
        </mxCell>
        <mxCell id="lfoB6U79hIwNB-Yo33na-11" value="Como comunicar los dos microservicios" style="text;html=1;align=center;verticalAlign=middle;resizable=0;points=[];autosize=1;strokeColor=none;fillColor=none;" vertex="1" parent="1">
          <mxGeometry x="665" y="1100" width="230" height="30" as="geometry" />
        </mxCell>
        <mxCell id="lfoB6U79hIwNB-Yo33na-12" value="Que necesitamos aprender" style="text;html=1;align=center;verticalAlign=middle;resizable=0;points=[];autosize=1;strokeColor=#3700CC;fillColor=#6a00ff;fontColor=#ffffff;" vertex="1" parent="1">
          <mxGeometry x="695" y="1030" width="170" height="30" as="geometry" />
        </mxCell>
        <mxCell id="lfoB6U79hIwNB-Yo33na-13" style="edgeStyle=orthogonalEdgeStyle;rounded=0;orthogonalLoop=1;jettySize=auto;html=1;exitX=0.5;exitY=1;exitDx=0;exitDy=0;entryX=0.5;entryY=0.067;entryDx=0;entryDy=0;entryPerimeter=0;" edge="1" parent="1" source="lfoB6U79hIwNB-Yo33na-10" target="lfoB6U79hIwNB-Yo33na-12">
          <mxGeometry relative="1" as="geometry" />
        </mxCell>
      </root>
    </mxGraphModel>
  </diagram>
</mxfile>
